<?xml version="1.0" standalone="no"?>
<!DOCTYPE svg PUBLIC "-//W3C//DTD SVG 20010904//EN"
 "http://www.w3.org/TR/2001/REC-SVG-20010904/DTD/svg10.dtd">
<svg version="1.0" xmlns="http://www.w3.org/2000/svg"
 width="768.000000pt" height="768.000000pt" viewBox="-56.000000 0 768.000000 768.000000"
 preserveAspectRatio="xMidYMid meet">

<g transform="translate(0.000000,768.000000) scale(0.100000,-0.100000)"
fill="#000000" stroke="none">
<path d="M3030 7574 c-347 -137 -702 -277 -900 -354 -102 -39 -210 -82 -240
-95 -30 -13 -86 -35 -125 -50 -38 -15 -198 -78 -355 -140 -157 -62 -377 -148
-490 -193 -113 -44 -324 -127 -470 -185 -146 -58 -291 -115 -323 -127 -31 -12
-62 -30 -67 -40 -14 -26 -13 -2044 1 -2316 9 -181 33 -388 70 -609 5 -33 28
-133 49 -221 233 -949 750 -1712 1585 -2340 265 -200 670 -450 1087 -673 53
-28 156 -85 227 -125 72 -41 131 -70 131 -63 0 10 -199 467 -273 627 -34 73
-37 76 -108 114 -264 140 -682 409 -874 562 -312 248 -541 482 -737 752 -364
502 -571 1031 -660 1684 -21 158 -22 196 -26 1227 -2 867 -1 1066 10 1072 33
21 199 81 210 76 7 -2 58 -108 112 -233 55 -126 119 -272 144 -324 24 -52 48
-104 52 -115 11 -28 231 -525 270 -610 58 -126 121 -267 205 -460 46 -104 118
-266 160 -360 42 -93 103 -231 136 -305 34 -74 70 -155 81 -180 11 -25 62
-139 113 -255 52 -115 144 -322 205 -460 62 -137 134 -299 160 -360 26 -60 69
-157 95 -215 85 -188 366 -822 624 -1410 83 -189 155 -348 159 -352 4 -4 49
86 99 200 50 114 207 470 348 792 141 322 305 693 365 825 59 132 187 420 285
640 97 220 196 443 220 495 24 52 87 193 140 314 53 120 105 237 115 260 10
22 69 154 130 291 62 138 123 275 137 305 14 30 69 154 123 275 54 121 166
373 250 560 83 187 183 412 222 500 39 88 76 166 83 173 10 11 31 6 119 -28
l107 -42 -4 -1106 -3 -1107 -26 -165 c-110 -701 -369 -1275 -812 -1803 -322
-383 -817 -768 -1386 -1078 -142 -77 -141 -77 -193 -191 -121 -269 -187 -418
-187 -422 0 -3 -16 -39 -35 -80 -19 -42 -35 -80 -35 -86 0 -5 30 8 68 29 70
40 112 63 277 154 686 377 1060 621 1385 906 372 325 703 728 913 1111 39 72
147 287 147 293 0 3 15 38 33 79 19 40 39 87 47 103 25 59 128 382 149 470 12
50 29 115 36 145 18 69 44 213 56 305 4 39 16 122 25 185 14 101 17 268 21
1337 4 1192 4 1222 -15 1241 -10 10 -63 36 -118 57 -54 21 -260 102 -456 180
-254 101 -360 139 -367 131 -12 -15 -56 -112 -181 -396 -57 -129 -107 -239
-110 -243 -4 -5 -30 0 -56 11 -44 18 -136 54 -349 137 -38 15 -106 42 -150 60
-77 32 -207 83 -405 160 -182 71 -525 206 -545 215 -11 5 -108 43 -215 85
-107 42 -205 80 -217 85 -14 6 -32 6 -45 1 -13 -5 -63 -25 -113 -44 -49 -20
-142 -55 -205 -80 -63 -25 -146 -57 -185 -72 -38 -15 -89 -36 -112 -46 -23
-11 -45 -19 -49 -19 -8 0 -277 -105 -319 -125 -27 -13 -122 -50 -330 -130
-122 -47 -249 -97 -292 -116 -23 -11 -46 -19 -50 -19 -4 -1 -26 -9 -48 -20
-22 -11 -48 -19 -57 -20 -9 0 -19 -4 -22 -9 -3 -5 -18 -12 -33 -16 -15 -3 -46
-15 -70 -26 -23 -10 -46 -19 -52 -19 -9 0 -32 44 -85 163 l-25 58 56 24 c30
14 57 25 59 25 4 0 379 148 774 305 157 62 328 130 380 150 149 58 409 160
598 236 95 38 182 69 193 69 10 0 92 -29 182 -64 89 -35 205 -81 257 -101 52
-20 203 -80 335 -132 132 -52 404 -160 605 -239 201 -79 380 -151 398 -159 18
-8 39 -15 46 -15 11 0 188 376 199 421 1 6 -54 33 -123 60 -69 27 -228 90
-355 140 -126 50 -250 99 -275 109 -25 11 -151 60 -280 111 -129 50 -318 124
-420 164 -102 40 -266 105 -365 144 -100 39 -192 71 -205 71 -14 0 -122 -39
-240 -86z m237 -5836 c-3 -8 -6 -5 -6 6 -1 11 2 17 5 13 3 -3 4 -12 1 -19z"/>
<path d="M781 4790 c-1 -631 1 -726 19 -903 11 -109 22 -202 25 -206 3 -5 10
-44 16 -87 19 -138 114 -479 165 -591 8 -17 14 -35 14 -40 1 -4 9 -26 20 -48
11 -22 19 -44 20 -48 0 -14 116 -242 180 -354 75 -133 245 -369 355 -492 130
-146 186 -200 450 -430 83 -73 125 -103 368 -269 119 -81 102 -70 212 -136 49
-30 91 -53 93 -51 4 4 -42 110 -143 330 -12 28 -37 84 -55 125 -17 41 -47 108
-66 148 -19 40 -34 75 -34 77 0 3 -13 33 -29 67 -80 174 -101 220 -101 225 0
2 -12 30 -26 61 -37 81 -50 112 -69 157 -10 22 -35 78 -57 125 -22 47 -43 94
-48 105 -5 11 -20 46 -34 77 -14 31 -26 59 -26 62 0 3 -16 41 -36 83 -19 43
-42 94 -51 113 -8 19 -23 53 -33 75 -55 119 -75 166 -105 234 -18 42 -47 108
-65 146 -18 39 -42 93 -55 120 -13 28 -55 124 -95 215 -68 156 -101 229 -155
345 -13 28 -56 124 -95 215 -39 91 -82 187 -95 215 -13 27 -33 73 -45 100 -12
28 -30 68 -41 91 -10 22 -19 43 -19 46 0 3 -19 46 -41 95 -23 48 -74 162 -114
253 -67 152 -86 195 -165 365 -15 33 -30 67 -33 75 -3 8 -6 -302 -6 -690z
m1639 -3440 c0 -5 -4 -10 -10 -10 -5 0 -10 5 -10 10 0 6 5 10 10 10 6 0 10 -4
10 -10z"/>
<path d="M5723 5417 c-66 -151 -215 -484 -238 -532 -13 -27 -60 -133 -105
-235 -45 -102 -95 -214 -112 -250 -17 -36 -72 -159 -123 -275 -90 -204 -125
-283 -167 -374 -11 -25 -55 -124 -98 -220 -43 -97 -90 -203 -105 -236 -14 -33
-32 -73 -40 -90 -7 -16 -25 -57 -40 -90 -15 -33 -68 -152 -117 -265 -50 -113
-103 -232 -118 -265 -15 -33 -98 -220 -185 -415 -86 -195 -172 -388 -191 -428
-19 -41 -34 -76 -34 -78 0 -3 -9 -25 -20 -50 -11 -24 -28 -63 -39 -86 -10 -24
-53 -121 -96 -216 -42 -95 -74 -176 -71 -179 10 -11 297 172 497 317 219 159
492 407 645 585 284 333 501 717 632 1120 42 127 86 294 97 365 3 25 10 59 15
75 5 17 19 107 31 200 20 158 22 224 26 933 2 419 1 762 -4 762 -4 0 -22 -33
-40 -73z"/>
</g>
</svg>
