<svg xmlns="http://www.w3.org/2000/svg" xmlns:xlink="http://www.w3.org/1999/xlink" xml:space="preserve" width="512" height="512" viewBox="0 0 135.47 135.47"><defs><linearGradient id="linearGradient2"><stop offset="0" stop-color="#2d1650" stop-opacity="0"/><stop offset=".814" stop-color="#2d1650"/></linearGradient><linearGradient xlink:href="#linearGradient2" id="linearGradient3" x1="5.349" x2="78.32" y1="65.233" y2="65.233" gradientUnits="userSpaceOnUse"/><linearGradient id="linearGradient43" x1="75.905" x2="75.905" y1="125.24" y2="10.223" gradientUnits="userSpaceOnUse"><stop offset=".302" stop-color="#170b28"/><stop offset="1" stop-color="#170b28" stop-opacity="0"/></linearGradient><radialGradient id="radialGradient22" cx="71.967" cy="67.733" r="34.495" gradientTransform="matrix(.90609 0 0 .91735 6.378 5.598)" gradientUnits="userSpaceOnUse"><stop offset=".611" stop-color="#2d1650"/><stop offset=".916" stop-color="#2d1650" stop-opacity="0"/></radialGradient><radialGradient id="radialGradient24" cx="71.967" cy="67.733" r="57.928" gradientTransform="matrix(.90609 0 0 .91734 6.378 5.599)" gradientUnits="userSpaceOnUse"><stop offset=".801" stop-color="#2d1650"/><stop offset=".855" stop-color="#795fff"/></radialGradient></defs><g fill-rule="evenodd"><rect width="131.37" height="131.37" x="2.05" y="2.05" fill="#2d1650" ry="17.586" style="paint-order:fill markers stroke"/><path fill="url(#linearGradient43)" d="M115.83 2.05a17.55 17.55 0 0 1 17.586 17.586v96.194a17.55 17.55 0 0 1-17.586 17.585H19.637c-9.743 0 40.5-31.377 57.324-47.498C97.937 65.817 82.77 4.969 115.83 2.05" opacity=".401" style="paint-order:fill markers stroke"/></g><g stroke-linecap="round"><path fill="#795fff" stroke="url(#radialGradient22)" stroke-width="1.016" d="M71.585 36.089c-17.25 0-31.254 14.219-31.254 31.643s14.004 31.645 31.254 31.645 31.257-14.221 31.257-31.645-14.007-31.643-31.257-31.643zm0 5.553c14.207 0 25.704 11.627 25.704 26.09S85.793 93.825 71.585 93.825s-25.702-11.63-25.702-26.093 11.494-26.09 25.702-26.09z" style="paint-order:fill markers stroke"/><circle cx="71.586" cy="67.733" r="11.841" fill="none" stroke="#795fff" stroke-width="6.609" style="paint-order:fill markers stroke"/><ellipse cx="71.586" cy="67.733" fill="none" stroke="url(#radialGradient24)" stroke-width="9.326" rx="47.824" ry="48.476" style="paint-order:fill markers stroke"/></g><path fill="#795fff" fill-rule="evenodd" d="M98.884 40.435a3.334 3.334 0 0 0-4.725.005L75.526 59.073l4.72 4.72L98.879 45.16a3.334 3.334 0 0 0 .005-4.725m-35.9 31.181L44.293 90.307a3.333 3.333 0 0 0-.006 4.725 3.334 3.334 0 0 0 4.725-.006l18.691-18.69zM44.288 40.435a3.334 3.334 0 0 0 .005 4.725l18.633 18.633 4.72-4.72L49.013 40.44a3.334 3.334 0 0 0-4.725-.005m31.181 35.9L94.16 95.026a3.333 3.333 0 0 0 4.725.005 3.334 3.334 0 0 0-.006-4.725l-18.69-18.69z" style="paint-order:fill markers stroke"/><g fill="url(#linearGradient3)" stroke="#795fff" stroke-linecap="round" stroke-width="2.384" transform="matrix(.93022 0 0 1.0166 6.78 1.414)"><rect width="8.5" height="29.144" x="6.541" y="82.498" ry="1.518" style="paint-order:fill markers stroke"/><rect width="8.5" height="29.144" x="6.541" y="19.596" ry="1.518" style="paint-order:fill markers stroke"/><path d="m39.672 17.35-.02.001a4.6 4.6 0 0 0-3.243 1.354l-7.752 7.752H6.54v15.057h18.457v47.844H6.54v15.057h18.457v.001h3.751l7.66 7.66a4.6 4.6 0 0 0 3.242 1.352l.02.002v0h28.574v-11.506h-16.68a13.03 13.03 0 0 1-9.21-3.815l-6.186-6.186V38.858l6.187-6.186a13.03 13.03 0 0 1 9.209-3.814h16.68V17.352H39.7z" style="paint-order:fill markers stroke"/><rect width="10.964" height="23.497" x="66.164" y="7.331" ry="3.096" style="paint-order:fill markers stroke"/><rect width="10.964" height="23.497" x="66.164" y="99.638" ry="3.096" style="paint-order:fill markers stroke"/></g></svg>