<?xml version="1.0" encoding="UTF-8" standalone="no"?>
<!-- Created with Inkscape (http://www.inkscape.org/) -->

<svg
   width="1024"
   height="1024"
   viewBox="0 0 270.93333 270.93333"
   version="1.1"
   id="svg1"
   inkscape:version="1.4.4 (dcaf3e7d9e, 2026-05-05)"
   sodipodi:docname="logo-principal.svg"
   xmlns:inkscape="http://www.inkscape.org/namespaces/inkscape"
   xmlns:sodipodi="http://sodipodi.sourceforge.net/DTD/sodipodi-0.dtd"
   xmlns:xlink="http://www.w3.org/1999/xlink"
   xmlns="http://www.w3.org/2000/svg"
   xmlns:svg="http://www.w3.org/2000/svg">
  <sodipodi:namedview
     id="namedview1"
     pagecolor="#505050"
     bordercolor="#eeeeee"
     borderopacity="1"
     inkscape:showpageshadow="0"
     inkscape:pageopacity="0"
     inkscape:pagecheckerboard="0"
     inkscape:deskcolor="#505050"
     inkscape:document-units="mm"
     inkscape:zoom="0.1044106"
     inkscape:cx="1925.092"
     inkscape:cy="3491.025"
     inkscape:window-width="1600"
     inkscape:window-height="872"
     inkscape:window-x="0"
     inkscape:window-y="0"
     inkscape:window-maximized="1"
     inkscape:current-layer="layer1" />
  <defs
     id="defs1">
    <linearGradient
       inkscape:collect="always"
       xlink:href="#linearGradient11"
       id="linearGradient12"
       x1="1.252143"
       y1="133.44264"
       x2="265.88095"
       y2="133.44264"
       gradientUnits="userSpaceOnUse"
       gradientTransform="matrix(0.99860273,0,0,1,4.9844361,6.2896813)" />
    <linearGradient
       id="linearGradient11"
       inkscape:collect="always">
      <stop
         style="stop-color:#130228;stop-opacity:1;"
         offset="0"
         id="stop11" />
      <stop
         style="stop-color:#824de6;stop-opacity:1;"
         offset="0.22926302"
         id="stop13" />
      <stop
         style="stop-color:#000000;stop-opacity:0.11540671;"
         offset="1"
         id="stop12" />
    </linearGradient>
    <filter
       style="color-interpolation-filters:sRGB"
       inkscape:label="Drop Shadow"
       id="filter62"
       x="-0.03793994"
       y="-0.071748701"
       width="1.1035975"
       height="1.184666">
      <feFlood
         result="flood"
         in="SourceGraphic"
         flood-opacity="0.498039"
         flood-color="rgb(0,0,0)"
         id="feFlood61" />
      <feGaussianBlur
         result="blur"
         in="SourceGraphic"
         stdDeviation="3.422 4.357"
         id="feGaussianBlur61" />
      <feOffset
         result="offset"
         in="blur"
         dx="6.000000"
         dy="6.000000"
         id="feOffset61" />
      <feComposite
         result="comp1"
         operator="in"
         in="flood"
         in2="offset"
         id="feComposite61" />
      <feComposite
         result="comp2"
         operator="over"
         in="SourceGraphic"
         in2="comp1"
         id="feComposite62" />
    </filter>
    <inkscape:path-effect
       effect="fillet_chamfer"
       id="path-effect65"
       is_visible="true"
       lpeversion="1"
       nodesatellites_param="F,0,0,1,0,0,0,1 @ F,0,0,1,0,0,0,1 @ F,0,0,1,0,0,0,1 @ F,0,0,1,0,0,0,1 @ F,0,0,1,0,0,0,1 @ F,0,0,1,0,0,0,1 @ F,0,0,1,0,0,0,1 @ F,0,0,1,0,0,0,1 @ F,0,0,1,0,2.7107251,0,1 @ F,0,0,1,0,0,0,1 @ F,0,0,1,0,0,0,1 @ F,0,0,1,0,0,0,1 @ F,0,0,1,0,0,0,1 @ F,0,0,1,0,0,0,1 @ F,0,0,1,0,0,0,1 @ F,0,0,1,0,0,0,1 @ F,0,0,1,0,0,0,1 @ F,0,0,1,0,0,0,1 @ F,0,0,1,0,2.144348,0,1 @ F,0,0,1,0,0,0,1 | F,0,0,1,0,0,0,1 @ F,0,0,1,0,0,0,1 @ F,0,0,1,0,0,0,1 @ F,0,0,1,0,0,0,1 | F,0,0,1,0,0,0,1 @ F,0,0,1,0,0,0,1 @ F,0,0,1,0,0,0,1 @ F,0,0,1,0,0,0,1 | F,0,0,1,0,0,0,1 @ F,0,0,1,0,0,0,1 | F,0,0,1,0,0,0,1 @ F,0,0,1,0,0,0,1 | F,0,0,1,0,0,0,1 @ F,0,0,1,0,0,0,1 @ F,0,0,1,0,0,0,1 @ F,0,0,1,0,0,0,1 @ F,0,0,1,0,0,0,1 @ F,0,0,1,0,0,0,1 @ F,0,0,1,0,0,0,1"
       radius="0"
       unit="px"
       method="auto"
       mode="F"
       chamfer_steps="1"
       flexible="false"
       use_knot_distance="true"
       apply_no_radius="true"
       apply_with_radius="true"
       only_selected="false"
       hide_knots="false" />
  </defs>
  <g
     inkscape:label="lg-principal"
     inkscape:groupmode="layer"
     id="layer1">
    <g
       id="g64">
      <rect
         style="opacity:1;fill:#2d1650;stroke-width:6.379;paint-order:fill markers stroke"
         id="rect2"
         width="264.58334"
         height="264.58334"
         x="3.1749949"
         y="3.1749949"
         ry="23.283333" />
      <path
         id="rect3"
         style="opacity:1;fill:url(#linearGradient12);stroke:none;stroke-width:6.37454;stroke-opacity:1;paint-order:fill markers stroke"
         d="m 44.691818,104.74904 c 64.978752,65.38831 17.04992,141.69498 -31.477021,158.87094 3.731799,2.55295 8.251276,4.04368 13.131208,4.04368 H 244.05806 c 12.88095,0 23.2508,-10.38437 23.2508,-23.28334 V 26.363653 c 0,-3.78806 -221.027422,81.540397 -222.617042,78.385387 z"
         sodipodi:nodetypes="ccssssc" />
    </g>
    <path
       id="path21"
       style="fill:#c6afe9;stroke:none;stroke-width:4.61999;stroke-opacity:1;paint-order:fill markers stroke;filter:url(#filter62)"
       d="m 24.232444,59.595662 c 0,0 56.38999,41.318558 10.13427,112.001428 0,0 29.30149,-1.21104 71.306236,22.5485 7.07664,7.16148 16.72567,11.192 26.79372,11.19208 10.06805,-8e-5 19.71707,-4.0306 26.79371,-11.19208 42.00474,-23.75953 71.30624,-22.5485 71.30624,-22.5485 -46.25572,-70.68287 10.13427,-112.001428 10.13427,-112.001428 -61.32778,15.07208 -76.48526,41.521498 -76.48526,41.521498 l -10.08449,-7.885241 c -1.17937,-0.922165 -1.7229,-0.528313 -1.23008,0.885338 3.16098,9.067313 13.6329,40.384013 15.81249,63.299823 -2.25068,-7.95825 -7.05789,-14.95461 -13.67979,-19.90938 5.41627,-12.49706 -3.65493,-37.891308 -7.01921,-37.789418 -2.79616,0.0847 -8.56727,19.709488 -10.09137,30.678748 -1.80681,-0.26438 -3.63046,-0.39702 -5.45651,-0.39688 -1.81421,2e-5 -3.62606,0.1311 -5.42138,0.39222 -1.52517,-10.97025 -7.29462,-30.589368 -10.09034,-30.674088 -3.36247,-0.10183 -12.42574,25.265058 -7.02799,37.769268 -6.63571,4.95568 -11.45325,11.96013 -13.707176,19.92953 2.224764,-23.39082 13.089196,-55.53438 15.999496,-63.83471 0.39181,-1.117453 -0.0379,-1.428811 -0.9709,-0.699324 l -10.53068,8.234114 c 0,0 -15.157476,-26.449418 -76.485256,-41.521498 z M 132.46667,135.92227 c 17.72339,4e-5 32.09102,14.36767 32.09106,32.09106 -3e-5,17.72339 -14.36767,32.09103 -32.09106,32.09107 -17.72339,-3e-5 -32.09104,-14.36768 -32.09107,-32.09107 4e-5,-17.72339 14.36768,-32.09103 32.09107,-32.09106 z m 0,7.03781 c -13.83665,-9e-5 -25.05358,11.2166 -25.05377,25.05325 -9e-5,13.83685 11.21692,25.05386 25.05377,25.05377 13.83685,9e-5 25.05385,-11.21692 25.05376,-25.05377 -1.9e-4,-13.83665 -11.21711,-25.05334 -25.05376,-25.05325 z m -44.167326,3.71089 c -11.78659,17.77342 -47.14648,21.32789 -47.14648,21.32789 30.30836,-8.2319 47.14648,-21.32789 47.14648,-21.32789 z m 87.261846,0 c 0,0 16.83812,13.09599 47.14648,21.32789 0,0 -35.3599,-3.55447 -47.14648,-21.32789 z m -43.09452,5.47098 c 5.21602,-3.7e-4 9.4447,4.22785 9.4449,9.44387 -1.6e-4,3.7066 -2.16854,7.07043 -5.54437,8.60102 l 4.08709,13.00851 h -15.97163 l 4.08605,-13.00747 c -3.37717,-1.52998 -5.54673,-4.89448 -5.54694,-8.60206 2e-4,-5.21602 4.22888,-9.44424 9.4449,-9.44387 z"
       inkscape:path-effect="#path-effect65"
       inkscape:original-d="m 24.232444,59.595662 c 0,0 56.38999,41.318558 10.13427,112.001428 0,0 29.30149,-1.21104 71.306236,22.5485 a 37.668712,37.668712 0 0 0 26.79372,11.19208 37.668712,37.668712 0 0 0 26.79371,-11.19208 c 42.00474,-23.75953 71.30624,-22.5485 71.30624,-22.5485 -46.25572,-70.68287 10.13427,-112.001428 10.13427,-112.001428 -61.32778,15.07208 -76.48526,41.521498 -76.48526,41.521498 l -12.21992,-9.554968 c 0,0 14.1434,38.787648 16.71784,65.854888 A 37.668712,37.668712 0 0 0 155.03376,137.5077 c 5.41627,-12.49706 -3.65493,-37.891308 -7.01921,-37.789418 -2.79616,0.0847 -8.56727,19.709488 -10.09137,30.678748 a 37.668712,37.668712 0 0 0 -5.45651,-0.39688 37.668712,37.668712 0 0 0 -5.42138,0.39222 c -1.52517,-10.97025 -7.29462,-30.589368 -10.09034,-30.674088 -3.36247,-0.10183 -12.42574,25.265058 -7.02799,37.769268 a 37.668712,37.668712 0 0 0 -13.707176,19.92953 c 2.57444,-27.06725 16.717846,-65.854888 16.717846,-65.854888 l -12.21993,9.554968 c 0,0 -15.157476,-26.449418 -76.485256,-41.521498 z M 132.46667,135.92227 a 32.091132,32.091132 0 0 1 32.09106,32.09106 32.091132,32.091132 0 0 1 -32.09106,32.09107 32.091132,32.091132 0 0 1 -32.09107,-32.09107 32.091132,32.091132 0 0 1 32.09107,-32.09106 z m 0,7.03781 a 25.053603,25.053603 0 0 0 -25.05377,25.05325 25.053603,25.053603 0 0 0 25.05377,25.05377 25.053603,25.053603 0 0 0 25.05376,-25.05377 25.053603,25.053603 0 0 0 -25.05376,-25.05325 z m -44.167326,3.71089 c -11.78659,17.77342 -47.14648,21.32789 -47.14648,21.32789 30.30836,-8.2319 47.14648,-21.32789 47.14648,-21.32789 z m 87.261846,0 c 0,0 16.83812,13.09599 47.14648,21.32789 0,0 -35.3599,-3.55447 -47.14648,-21.32789 z m -43.09452,5.47098 a 9.4442365,9.4442365 0 0 1 9.4449,9.44387 9.4442365,9.4442365 0 0 1 -5.54437,8.60102 l 4.08709,13.00851 h -15.97163 l 4.08605,-13.00747 a 9.4442365,9.4442365 0 0 1 -5.54694,-8.60206 9.4442365,9.4442365 0 0 1 9.4449,-9.44387 z" />
  </g>
</svg>
